<svg width="41" height="43" viewBox="0 0 41 43" fill="none" xmlns="http://www.w3.org/2000/svg">
<path d="M8.4328 33.8786L8.21313 34.3744L8.68608 34.1439C11.7322 37.2679 15.9005 39.2 20.5 39.2C29.8388 39.2 37.4 31.2349 37.4 21.5C37.4 16.6939 35.5571 12.3192 32.5672 9.12137L32.7869 8.62561L32.3139 8.85611C29.2678 5.73208 25.0995 3.8 20.5 3.8C11.1612 3.8 3.6 11.7651 3.6 21.5C3.6 26.3061 5.44291 30.6808 8.4328 33.8786ZM16.7627 17.548L30.7631 10.7244L24.2373 25.452L10.2369 32.2756L16.7627 17.548ZM0.5 21.5C0.5 9.88543 9.48232 0.5 20.5 0.5C31.5177 0.5 40.5 9.88543 40.5 21.5C40.5 33.1146 31.5177 42.5 20.5 42.5C9.48232 42.5 0.5 33.1146 0.5 21.5ZM23.255 21.5C23.255 19.9351 22.0488 18.635 20.5 18.635C18.9512 18.635 17.745 19.9351 17.745 21.5C17.745 23.0649 18.9512 24.365 20.5 24.365C22.0488 24.365 23.255 23.0649 23.255 21.5Z" fill="black" stroke="black"/>
</svg>
