<svg width="36" height="39" viewBox="0 0 36 39" fill="none" xmlns="http://www.w3.org/2000/svg">
<path d="M25.0371 19.4445L11.8133 29.267V9.62299L25.0371 19.4445ZM30.2434 1C29.9721 1.11457 29.7414 1.31022 29.5817 1.56108C29.4221 1.81195 29.341 2.10622 29.3492 2.405V4.12129C29.3303 4.49659 29.4585 4.86418 29.7057 5.14336C29.9529 5.42254 30.2988 5.59049 30.6676 5.61034H33.6806C33.8807 5.60691 34.0771 5.55516 34.2536 5.45937C34.4302 5.36357 34.5819 5.22647 34.6962 5.05934C33.4011 3.50564 31.9029 2.13983 30.2434 1V1ZM5.78821 1.01245C4.11945 2.14835 2.61192 3.51214 1.30789 5.06557C1.42245 5.23098 1.57378 5.36653 1.74954 5.4612C1.9253 5.55586 2.12054 5.60696 2.31937 5.61034H5.33243C5.70118 5.59049 6.04712 5.42254 6.29431 5.14336C6.54149 4.86418 6.66972 4.49659 6.65083 4.12129V2.405C6.65844 2.1121 6.58056 1.82347 6.42702 1.57561C6.27348 1.32774 6.05117 1.13177 5.78821 1.01245V1.01245ZM2.31937 9.03775C2.13678 9.04757 1.95788 9.09391 1.79289 9.17412C1.6279 9.25433 1.48006 9.36684 1.35781 9.50522C1.23556 9.6436 1.14131 9.80514 1.08043 9.9806C1.01955 10.1561 0.993245 10.342 1.00301 10.5278V12.2421C0.983562 12.617 1.11118 12.9844 1.35783 13.2636C1.60447 13.5429 1.94995 13.711 2.31835 13.7311H5.33243C5.70118 13.7113 6.04712 13.5433 6.29431 13.2641C6.54149 12.9849 6.66972 12.6174 6.65083 12.2421V10.5278C6.66999 10.1524 6.54189 9.7845 6.29468 9.5051C6.04747 9.22569 5.70137 9.0576 5.33243 9.03775H2.31937ZM30.6686 9.03775C30.2997 9.0576 29.9536 9.22569 29.7063 9.5051C29.4591 9.7845 29.331 10.1524 29.3502 10.5278V12.2421C29.3313 12.6174 29.4595 12.9849 29.7067 13.2641C29.9539 13.5433 30.2998 13.7113 30.6686 13.7311H33.6817C34.0501 13.711 34.3955 13.5429 34.6422 13.2636C34.8888 12.9844 35.0164 12.617 34.997 12.2421V10.5278C35.0167 10.1527 34.8892 9.78502 34.6426 9.50558C34.3959 9.22613 34.0502 9.05785 33.6817 9.03775H30.6686ZM2.31937 17.1585C2.13678 17.1683 1.95788 17.2147 1.79289 17.2949C1.6279 17.3751 1.48006 17.4876 1.35781 17.626C1.23556 17.7644 1.14131 17.9259 1.08043 18.1014C1.01955 18.2768 0.993245 18.4628 1.00301 18.6486V20.3628C0.983282 20.7379 1.11078 21.1056 1.35745 21.3851C1.60412 21.6645 1.94977 21.8328 2.31835 21.8529H5.33243C5.70137 21.8331 6.04747 21.665 6.29468 21.3856C6.54189 21.1061 6.66999 20.7383 6.65083 20.3628V18.6486C6.66999 18.2731 6.54189 17.9053 6.29468 17.6259C6.04747 17.3465 5.70137 17.1784 5.33243 17.1585H2.31937ZM30.6686 17.1585C30.2997 17.1784 29.9536 17.3465 29.7063 17.6259C29.4591 17.9053 29.331 18.2731 29.3502 18.6486V20.3628C29.331 20.7383 29.4591 21.1061 29.7063 21.3856C29.9536 21.665 30.2997 21.8331 30.6686 21.8529H33.6817C33.8642 21.8431 34.0431 21.7967 34.2081 21.7165C34.3731 21.6363 34.521 21.5238 34.6432 21.3854C34.7655 21.247 34.8597 21.0855 34.9206 20.91C34.9815 20.7346 35.0078 20.5486 34.998 20.3628V18.6486C35.0078 18.4628 34.9815 18.2768 34.9206 18.1014C34.8597 17.9259 34.7655 17.7644 34.6432 17.626C34.521 17.4876 34.3731 17.3751 34.2081 17.2949C34.0431 17.2147 33.8642 17.1683 33.6817 17.1585H30.6686ZM2.31937 25.2793C2.13669 25.289 1.95768 25.3352 1.79257 25.4154C1.62747 25.4955 1.47951 25.608 1.35715 25.7464C1.2348 25.8848 1.14045 26.0464 1.07951 26.2219C1.01857 26.3974 0.992228 26.5835 1.00199 26.7694V28.4836C0.982263 28.8587 1.10976 29.2264 1.35643 29.5058C1.6031 29.7853 1.94875 29.9536 2.31733 29.9737H5.33141C5.70035 29.9538 6.04645 29.7857 6.29366 29.5063C6.54088 29.2269 6.66898 28.8591 6.64981 28.4836V26.7694C6.6687 26.3941 6.54047 26.0265 6.29329 25.7473C6.0461 25.4681 5.70016 25.3002 5.33141 25.2803L2.31937 25.2793ZM30.6686 25.2793C30.2997 25.2991 29.9536 25.4672 29.7063 25.7466C29.4591 26.026 29.331 26.3939 29.3502 26.7694V28.4836C29.331 28.8591 29.4591 29.2269 29.7063 29.5063C29.9536 29.7857 30.2997 29.9538 30.6686 29.9737H33.6817C33.8642 29.9638 34.0431 29.9175 34.2081 29.8373C34.3731 29.7571 34.521 29.6446 34.6432 29.5062C34.7655 29.3678 34.8597 29.2063 34.9206 29.0308C34.9815 28.8553 35.0078 28.6694 34.998 28.4836V26.7694C35.0175 26.3943 34.8897 26.0267 34.6428 25.7474C34.396 25.4682 34.0502 25.3002 33.6817 25.2803L30.6686 25.2793ZM2.31937 33.4021C2.12054 33.4055 1.9253 33.4566 1.74954 33.5513C1.57378 33.6459 1.42245 33.7815 1.30789 33.9469C2.61191 35.5003 4.11945 36.8641 5.78821 38C6.05117 37.8807 6.27348 37.6847 6.42702 37.4368C6.58056 37.189 6.65844 36.9004 6.65083 36.6075V34.8912C6.66972 34.5159 6.54149 34.1483 6.29431 33.8691C6.04712 33.5899 5.70118 33.422 5.33243 33.4021H2.31937V33.4021ZM30.6686 33.4021C30.2998 33.422 29.9539 33.5899 29.7067 33.8691C29.4595 34.1483 29.3313 34.5159 29.3502 34.8912V36.6075C29.3425 36.9002 29.4202 37.1888 29.5736 37.4366C29.7269 37.6845 29.949 37.8805 30.2118 38C31.8809 36.8642 33.3888 35.5004 34.6931 33.9469C34.5786 33.7815 34.4272 33.6459 34.2515 33.5513C34.0757 33.4566 33.8805 33.4055 33.6817 33.4021H30.6686V33.4021Z" stroke="black" stroke-linecap="round" stroke-linejoin="round"/>
</svg>
