<svg width="41" height="43" viewBox="0 0 41 43" fill="none" xmlns="http://www.w3.org/2000/svg">
<path d="M20 26.875V27.9041L20.809 27.2681L32.0202 18.4548C32.0207 18.4545 32.0211 18.4542 32.0215 18.4538C32.831 17.8236 32.831 16.5762 32.0214 15.9461C32.021 15.9458 32.0206 15.9455 32.0202 15.9452L20.809 7.13192L20 6.49595V7.525V26.875ZM0.5 10.75C0.5 9.82093 1.22082 9.1 2.05 9.1C2.87918 9.1 3.6 9.82093 3.6 10.75V36.55C3.6 37.9859 4.72418 39.2 6.15 39.2H30.75C31.5792 39.2 32.3 39.9209 32.3 40.85C32.3 41.7791 31.5792 42.5 30.75 42.5H4.1C2.14332 42.5 0.5 40.8116 0.5 38.7V10.75ZM12.3 0.5H36.9C38.8567 0.5 40.5 2.18843 40.5 4.3V30.1C40.5 32.2116 38.8567 33.9 36.9 33.9H12.3C10.3433 33.9 8.7 32.2116 8.7 30.1V4.3C8.7 2.18843 10.3433 0.5 12.3 0.5Z" fill="black" stroke="black"/>
</svg>
