<svg width="20" height="20" viewBox="0 0 44 43" fill="none" xmlns="http://www.w3.org/2000/svg">
<path d="M22.7379 0.817978L22.7383 0.818461L42.7298 21.4951C42.7298 21.4952 42.7299 21.4952 42.7299 21.4953C43.756 22.5575 43.756 24.2852 42.7339 25.3473L42.7332 25.3481C42.2444 25.8582 41.5833 26.1384 40.8956 26.1384H38.7892H38.2892V26.6384V41.3925C38.2892 42.0219 37.8029 42.5 37.236 42.5H24.8306V31.7473V31.2473H24.3306H18.8947H18.3947V31.7473V42.5H6.76578C6.19894 42.5 5.71266 42.0219 5.71266 41.3925V26.6384V26.1384H5.21266H3.10624C1.68518 26.1384 0.5 24.9369 0.5 23.4234C0.5 22.6974 0.780781 22.0037 1.27192 21.4953C1.27196 21.4952 1.272 21.4952 1.27204 21.4951L21.2635 0.818461L21.2639 0.817978C21.3623 0.716004 21.4781 0.63606 21.6044 0.581847C21.7306 0.527652 21.8653 0.5 22.0009 0.5C22.1365 0.5 22.2712 0.527652 22.3974 0.581847C22.5237 0.636059 22.6395 0.716003 22.7379 0.817978Z" fill="black" stroke="black"/>
</svg>
