<svg width="44" height="43" viewBox="0 0 44 43" fill="none" xmlns="http://www.w3.org/2000/svg">
<path d="M12.2222 2.02941H11.9496L11.8019 2.25861L6.91301 9.84685L6.41641 10.6176H7.33333H9.77778H10.0504L10.1981 10.3884L15.087 2.80021L15.5836 2.02941H14.6667H12.2222ZM22.4203 2.80021L22.9169 2.02941H22H19.5556H19.2829L19.1352 2.25861L14.2463 9.84685L13.7497 10.6176H14.6667H17.1111H17.3838L17.5314 10.3884L22.4203 2.80021ZM29.7537 2.80021L30.2503 2.02941H29.3333H26.8889H26.6162L26.4686 2.25861L21.5797 9.84685L21.0831 10.6176H22H24.4444H24.7171L24.8648 10.3884L29.7537 2.80021ZM37.087 2.80021L37.5836 2.02941H36.6667H34.2222H33.9496L33.8019 2.25861L28.913 9.84685L28.4164 10.6176H29.3333H31.7778H32.0504L32.1981 10.3884L37.087 2.80021ZM39.1111 38.4412H39.6111V37.9412V12.6471V12.1471H39.1111H4.88889H4.38889V12.6471V37.9412V38.4412H4.88889H39.1111ZM2.44444 0.5H41.5556C42.6079 0.5 43.5 1.39814 43.5 2.52941V42.4994L0.5 42.45V2.52941C0.5 1.39814 1.39211 0.5 2.44444 0.5ZM17.6111 34.4594V16.1288L30.8972 25.2941L17.6111 34.4594Z" fill="black" stroke="black"/>
</svg>
