<svg width="50" height="50" viewBox="0 0 41 43" fill="none" xmlns="http://www.w3.org/2000/svg">
<path d="M1.56727 41.3929C2.27845 42.1388 3.11395 42.5 4.1 42.5H36.9C37.8858 42.5 38.722 42.1389 39.4345 41.3932C40.1466 40.6451 40.5 39.7565 40.5 38.7V17.2C40.5 16.1435 40.1467 15.255 39.4345 14.5068L1.56727 41.3929ZM1.56727 41.3929C0.85385 40.6447 0.5 39.7562 0.5 38.7M1.56727 41.3929L0.5 38.7M0.5 38.7V17.2M0.5 38.7V17.2M0.5 17.2C0.5 16.1438 0.85385 15.2553 1.56727 14.5071M0.5 17.2L1.56727 14.5071M1.56727 14.5071C2.27845 13.7612 3.11395 13.4 4.1 13.4M1.56727 14.5071L4.1 13.4M4.1 13.4H36.9M4.1 13.4H36.9M36.9 13.4C37.8858 13.4 38.722 13.7611 39.4345 14.5068L36.9 13.4ZM3.6 38.7V39.2H4.1H36.9H37.4V38.7V17.2V16.7H36.9H4.1H3.6V17.2V38.7ZM16.9 20.3097L27.8274 27.95L16.9 35.5903V20.3097ZM4.6 10.25V6.95H36.4V10.25H4.6ZM10.75 3.8V0.5H30.25V3.8H10.75Z" fill="black" stroke="black"/>
</svg>
