<svg width="37" height="39" viewBox="0 0 37 39" fill="none" xmlns="http://www.w3.org/2000/svg">
<path d="M18.5 3.25002C27.0141 3.25002 33.9167 10.5257 33.9167 19.5C33.9167 28.4743 27.0141 35.75 18.5 35.75C9.98589 35.75 3.08333 28.4743 3.08333 19.5C3.08333 18.9757 3.10697 18.46 3.15219 17.9508C3.23236 17.0658 2.60336 16.25 1.76058 16.25C0.892111 16.25 0.140806 16.9108 0.0678333 17.823C0.0226111 18.3755 0 18.9356 0 19.5C0 30.2694 8.28286 39 18.5 39C28.7171 39 37 30.2694 37 19.5C37 8.7306 28.7171 1.98793e-05 18.5 1.98793e-05V3.25002ZM18.5 3.25002L18.5007 2.75002C18.5006 2.75002 18.5005 2.75002 18.5004 2.75002C18.5002 2.75002 18.5001 2.75002 18.5 2.75002V3.25002ZM19.0278 19.5V20H19.5278H23.125C23.3925 20 23.6548 20.1118 23.8524 20.3201C24.0509 20.5293 24.1667 20.8184 24.1667 21.125C24.1667 21.4316 24.0509 21.7207 23.8524 21.9299C23.6548 22.1382 23.3925 22.25 23.125 22.25H17.9861C17.7186 22.25 17.4563 22.1382 17.2587 21.9299C17.0602 21.7207 16.9444 21.4316 16.9444 21.125V10.2917C16.9444 9.98507 17.0602 9.69597 17.2587 9.48676C17.4563 9.27845 17.7186 9.16668 17.9861 9.16668C18.2536 9.16668 18.5159 9.27845 18.7135 9.48676C18.912 9.69597 19.0278 9.98507 19.0278 10.2917V19.5Z" fill="black" stroke="black"/>
</svg>
